<mxfile host="app.diagrams.net" modified="2020-11-08T09:47:54.066Z" agent="5.0 (iPad; CPU OS 14_0 like Mac OS X) AppleWebKit/605.1.15 (KHTML, like Gecko) CriOS/86.0.4240.93 Mobile/15E148 Safari/604.1" etag="1lAQJZRtbWEaxpIl-PVZ" version="13.9.2" type="github">
  <diagram id="mXG4PAfmD-UgTnTKrAta" name="Page-1">
    <mxGraphModel dx="560" dy="474" grid="1" gridSize="10" guides="1" tooltips="1" connect="1" arrows="1" fold="1" page="1" pageScale="1" pageWidth="850" pageHeight="1100" math="0" shadow="0">
      <root>
        <mxCell id="0" />
        <mxCell id="1" parent="0" />
        <mxCell id="Y2b7x41vzCOfhbko_v__-4" value="Github" style="shape=cylinder3;whiteSpace=wrap;html=1;boundedLbl=1;backgroundOutline=1;size=15;" vertex="1" parent="1">
          <mxGeometry x="140" y="20" width="110" height="80" as="geometry" />
        </mxCell>
        <mxCell id="Y2b7x41vzCOfhbko_v__-5" value="Pi server" style="aspect=fixed;perimeter=ellipsePerimeter;html=1;align=center;shadow=0;dashed=0;spacingTop=3;image;image=img/lib/active_directory/folder_open.svg;" vertex="1" parent="1">
          <mxGeometry x="204" y="110" width="46" height="50" as="geometry" />
        </mxCell>
        <mxCell id="Y2b7x41vzCOfhbko_v__-6" value="Database" style="aspect=fixed;perimeter=ellipsePerimeter;html=1;align=center;shadow=0;dashed=0;spacingTop=3;image;image=img/lib/active_directory/folder.svg;" vertex="1" parent="1">
          <mxGeometry x="250" y="180" width="36.5" height="50" as="geometry" />
        </mxCell>
        <mxCell id="Y2b7x41vzCOfhbko_v__-8" value="" style="endArrow=classic;html=1;entryX=0;entryY=0.25;entryDx=0;entryDy=0;" edge="1" parent="1" source="Y2b7x41vzCOfhbko_v__-5" target="Y2b7x41vzCOfhbko_v__-13">
          <mxGeometry width="50" height="50" relative="1" as="geometry">
            <mxPoint x="280" y="120" as="sourcePoint" />
            <mxPoint x="410" y="60" as="targetPoint" />
          </mxGeometry>
        </mxCell>
        <mxCell id="Y2b7x41vzCOfhbko_v__-9" value="Job pull" style="shape=process;whiteSpace=wrap;html=1;backgroundOutline=1;" vertex="1" parent="1">
          <mxGeometry x="505" y="310" width="160" height="30" as="geometry" />
        </mxCell>
        <mxCell id="Y2b7x41vzCOfhbko_v__-11" value="Job configure github of pi server" style="shape=process;whiteSpace=wrap;html=1;backgroundOutline=1;" vertex="1" parent="1">
          <mxGeometry x="505" y="220" width="185" height="40" as="geometry" />
        </mxCell>
        <mxCell id="Y2b7x41vzCOfhbko_v__-12" value="Jenkins &amp;nbsp;all jobs for pi server" style="rounded=1;whiteSpace=wrap;html=1;fillColor=#d5e8d4;strokeColor=#82b366;" vertex="1" parent="1">
          <mxGeometry x="500" y="100" width="160" height="70" as="geometry" />
        </mxCell>
        <mxCell id="Y2b7x41vzCOfhbko_v__-13" value="Workspace set to directory of pi_server here" style="shape=document;whiteSpace=wrap;html=1;boundedLbl=1;" vertex="1" parent="1">
          <mxGeometry x="370" y="180" width="120" height="80" as="geometry" />
        </mxCell>
        <mxCell id="Y2b7x41vzCOfhbko_v__-14" value="Jobs to execute scripts" style="shape=process;whiteSpace=wrap;html=1;backgroundOutline=1;" vertex="1" parent="1">
          <mxGeometry x="510" y="380" width="150" height="30" as="geometry" />
        </mxCell>
        <mxCell id="Y2b7x41vzCOfhbko_v__-15" value="Inverstment" style="aspect=fixed;perimeter=ellipsePerimeter;html=1;align=center;shadow=0;dashed=0;spacingTop=3;image;image=img/lib/active_directory/folder.svg;" vertex="1" parent="1">
          <mxGeometry x="310" y="240" width="36.5" height="50" as="geometry" />
        </mxCell>
        <mxCell id="Y2b7x41vzCOfhbko_v__-16" value="Scripts" style="aspect=fixed;perimeter=ellipsePerimeter;html=1;align=center;shadow=0;dashed=0;spacingTop=3;image;image=img/lib/active_directory/folder.svg;" vertex="1" parent="1">
          <mxGeometry x="360" y="330" width="36.5" height="50" as="geometry" />
        </mxCell>
        <mxCell id="Y2b7x41vzCOfhbko_v__-17" value="" style="endArrow=classic;html=1;" edge="1" parent="1" source="Y2b7x41vzCOfhbko_v__-16" target="Y2b7x41vzCOfhbko_v__-14">
          <mxGeometry width="50" height="50" relative="1" as="geometry">
            <mxPoint x="407" y="345" as="sourcePoint" />
            <mxPoint x="460" y="340" as="targetPoint" />
          </mxGeometry>
        </mxCell>
      </root>
    </mxGraphModel>
  </diagram>
</mxfile>
